<svg width="1200pt" height="1200pt" version="1.1" viewBox="0 0 1200 1200" xmlns="http://www.w3.org/2000/svg">
 <path d="m848.4 30h-496.8c-102 0-183.6 82.801-183.6 183.6v600c0 102 82.801 183.6 183.6 183.6h498c102 0 183.6-82.801 183.6-183.6v-600c-0.003906-100.8-82.805-183.6-184.8-183.6zm87.602 784.8c0 48-39.602 87.602-87.602 87.602l-496.8-0.003906c-48 0-87.602-39.602-87.602-87.602v-600c0-48 39.602-87.602 87.602-87.602h498c48 0 87.602 39.602 87.602 87.602l-0.003906 600z"/>
 <path d="m808.8 223.2h-417.6c-16.801 0-31.199 14.398-31.199 31.199v230.4c0 16.801 14.398 31.199 31.199 31.199h417.6c16.801 0 31.199-14.398 31.199-31.199v-230.4c0-16.797-14.398-31.199-31.199-31.199z"/>
 <path d="m519.6 705.6c0 43.078-34.922 78-78 78-43.078 0-78-34.922-78-78 0-43.078 34.922-78 78-78 43.078 0 78 34.922 78 78"/>
 <path d="m836.4 705.6c0 43.078-34.922 78-78 78-43.078 0-78-34.922-78-78 0-43.078 34.922-78 78-78 43.078 0 78 34.922 78 78"/>
 <path d="m340.8 1170h518.4c9.6016 0 16.801-7.1992 16.801-16.801v-62.398c0-9.6016-7.1992-16.801-16.801-16.801h-518.4c-9.6016 0-16.801 7.1992-16.801 16.801v62.398c0 9.6016 7.1992 16.801 16.801 16.801z"/>
</svg>
